<svg width="442" height="97" viewBox="0 0 442 97" fill="none" xmlns="http://www.w3.org/2000/svg">
<g clip-path="url(#clip0_470_59601)">
<path d="M153.273 69.3539H136.413C133.04 69.3539 130.305 66.6084 130.305 63.2239V19.7457C130.305 16.2429 127.475 13.4027 123.985 13.4027H115.708C114.835 13.4027 114.128 14.1128 114.128 14.9885V63.2002C114.128 75.5549 124.103 85.5665 136.413 85.5665H153.273C154.146 85.5665 154.853 84.8564 154.853 83.9807V70.916C154.853 70.0639 154.146 69.3539 153.273 69.3539Z" fill="white"/>
<path d="M331.88 13.2843H316.788V8.66907C316.788 5.16621 313.958 2.32605 310.468 2.32605H302.191C301.318 2.32605 300.611 3.03609 300.611 3.91181V15.2724V31.5087V63.2238C300.611 75.5785 310.586 85.5901 322.895 85.5901H331.88C332.753 85.5901 333.46 84.88 333.46 84.0043V70.9396C333.46 70.0639 332.753 69.3538 331.88 69.3538H322.895C319.523 69.3538 316.788 66.6083 316.788 63.2238V29.5206H331.88C332.753 29.5206 333.46 28.8105 333.46 27.9348V14.8701C333.46 13.9944 332.753 13.2843 331.88 13.2843Z" fill="white"/>
<path d="M377.605 15.7221C358.41 15.4381 342.445 30.9879 342.162 50.2537C341.902 69.8271 357.608 85.7794 377.063 85.7794C388.287 85.7794 398.262 80.4777 404.653 72.2176C405.219 71.5076 405.03 70.4662 404.276 69.9455L397.72 65.4722C395.385 63.8628 392.249 64.0048 390.103 65.8509C386.613 68.9041 382.038 70.7502 377.063 70.7502C367.795 70.7502 359.966 64.3598 357.773 55.721H396.352H407.011C409.723 55.721 411.963 53.5436 411.963 50.8217C411.963 50.7981 411.963 50.7981 411.963 50.7744C411.963 48.1236 411.68 45.5438 411.114 43.0586C407.648 27.5561 393.994 15.9824 377.605 15.7221ZM358.693 43.035C361.711 35.8399 368.809 30.7749 377.063 30.7749C385.316 30.7749 392.414 35.8399 395.433 43.035H358.693Z" fill="white"/>
<path d="M229.56 30.3963C235.078 30.065 240.148 32.0057 243.945 35.3666C246.067 37.2364 249.18 37.402 251.538 35.84L258.164 31.414C258.919 30.917 259.108 29.8756 258.565 29.1419C252.34 20.9528 242.624 15.6038 231.635 15.3435C212.322 14.8938 196.168 30.491 195.909 49.8751C195.65 69.4485 211.378 85.3771 230.81 85.3771C242.011 85.3771 251.986 80.0754 258.376 71.839C258.942 71.1053 258.754 70.0639 257.999 69.5669L251.326 65.1409C248.991 63.5789 245.878 63.7209 243.756 65.5433C240.266 68.5491 235.738 70.3479 230.81 70.3479C219.325 70.3479 210.081 60.5494 210.954 48.8337C211.661 38.9168 219.703 30.988 229.56 30.3963Z" fill="white"/>
<path d="M177.232 13.4264H168.955C168.082 13.4264 167.375 14.1364 167.375 15.0122V79.2471C167.375 82.75 170.205 85.5901 173.695 85.5901H181.972C182.845 85.5901 183.552 84.8801 183.552 84.0044V19.7458C183.528 16.2666 180.722 13.4264 177.232 13.4264Z" fill="white"/>
<path d="M281.251 13.4264H272.974C272.101 13.4264 271.394 14.1364 271.394 15.0122V79.2471C271.394 82.75 274.223 85.5901 277.713 85.5901H285.991C286.863 85.5901 287.571 84.8801 287.571 84.0044V19.7458C287.571 16.2666 284.741 13.4264 281.251 13.4264Z" fill="white"/>
<path d="M434.696 13.4264H426.419C425.546 13.4264 424.839 14.1364 424.839 15.0122V79.2471C424.839 82.75 427.669 85.5901 431.159 85.5901H439.436C440.308 85.5901 441.016 84.8801 441.016 84.0044V19.7458C441.016 16.2666 438.186 13.4264 434.696 13.4264Z" fill="white"/>
<path d="M65.1497 96.3117H16.383C7.91721 96.3117 1.00781 89.4006 1.00781 80.8801V36.2423C1.00781 33.4021 3.29523 31.1063 6.12501 31.1063C8.9548 31.1063 11.2422 33.4021 11.2422 36.2423V80.9038C11.2422 83.744 13.5296 86.0398 16.3594 86.0398H60.0325V74.7738H26.6881C23.8583 74.7738 21.5709 72.478 21.5709 69.6378V4.69284C21.5709 1.85268 23.8583 -0.443115 26.6881 -0.443115H48.7369C50.0575 -0.443115 51.3309 0.0775822 52.2977 1.00063L68.7341 16.9055C69.7245 17.8759 70.2904 19.2013 70.2904 20.5977V64.4782H79.7467C82.5764 64.4782 84.8639 66.774 84.8639 69.6142C84.8639 72.4543 82.5764 74.7501 79.7467 74.7501H70.2904V91.152C70.2904 94.0159 67.9795 96.3117 65.1497 96.3117ZM31.8053 64.4782H60.0325V22.7989L46.6617 9.85246H31.8053V64.4782Z" fill="#FF7630"/>
</g>
<defs>
<clipPath id="clip0_470_59601">
<rect width="442" height="97" fill="white"/>
</clipPath>
</defs>
</svg>
